HIERARCHY
ROOT root
{
	OFFSET	0	13.1	24.9
	CHANNELS 6  Xposition Yposition Zposition Xrotation Yrotation Zrotation
	JOINT spine_1
	{
		OFFSET	0	9.99999	0
		CHANNELS 3  Xrotation Yrotation Zrotation
		JOINT spine_2
		{
			OFFSET	0	112	-10
			CHANNELS 3  Xrotation Yrotation Zrotation
			JOINT spine_3
			{
				OFFSET	0	206.5	19.3
				CHANNELS 3  Xrotation Yrotation Zrotation
				JOINT spine_4
				{
					OFFSET	0	110.4	14.6
					CHANNELS 3  Xrotation Yrotation Zrotation
					JOINT neck_1
					{
						OFFSET	0	71.8	-50.3
						CHANNELS 3  Xrotation Yrotation Zrotation
						JOINT neck_2
						{
							OFFSET	0	86.2	-25.8
							CHANNELS 3  Xrotation Yrotation Zrotation
							JOINT head_ee
							{
								OFFSET	0	179.8	-8.7
								CHANNELS 3  Xrotation Yrotation Zrotation
								End Site
								{
									OFFSET	1	0	0
								}
							}
						}
					}
					JOINT left_clavicle
					{
						OFFSET	-43.2	22.4	-70.8
						CHANNELS 3  Xrotation Yrotation Zrotation
						JOINT left_shoulder
						{
							OFFSET	-93.9	-5.79999	48.7
							CHANNELS 3  Xrotation Yrotation Zrotation
							JOINT left_elbow
							{
								OFFSET	-291.4	-30.8	15.2
								CHANNELS 3  Xrotation Yrotation Zrotation
								JOINT left_lowarm_twist
								{
									OFFSET	-110.7	-3.89999	13.6
									CHANNELS 3  Xrotation Yrotation Zrotation
									JOINT left_hand
									{
										OFFSET	-110.7	-3.89999	13.6
										CHANNELS 3  Xrotation Yrotation Zrotation
										JOINT left_ee
										{
											OFFSET	-80.8	-5.10001	12.1
											CHANNELS 3  Xrotation Yrotation Zrotation
											End Site
											{
												OFFSET	1	0	0
											}
										}
									}
								}
							}
						}
					}
					JOINT right_clavicle
					{
						OFFSET	43.2	22.4	-70.8
						CHANNELS 3  Xrotation Yrotation Zrotation
						JOINT right_shoulder
						{
							OFFSET	93.9	-5.79999	48.7
							CHANNELS 3  Xrotation Yrotation Zrotation
							JOINT right_elbow
							{
								OFFSET	291.4	-30.8	15.2
								CHANNELS 3  Xrotation Yrotation Zrotation
								JOINT right_lowarm_twist
								{
									OFFSET	110.7	-3.89999	13.6
									CHANNELS 3  Xrotation Yrotation Zrotation
									JOINT right_hand
									{
										OFFSET	110.7	-3.89999	13.6
										CHANNELS 3  Xrotation Yrotation Zrotation
										JOINT right_ee
										{
											OFFSET	80.8	-5.10001	12.1
											CHANNELS 3  Xrotation Yrotation Zrotation
											End Site
											{
												OFFSET	1	0	0
											}
										}
									}
								}
							}
						}
					}
				}
			}
		}
	}
	JOINT left_hip
	{
		OFFSET	-82.8	-127.5	0.300001
		CHANNELS 3  Xrotation Yrotation Zrotation
		JOINT left_knee
		{
			OFFSET	-28.2	-396.7	2.2
			CHANNELS 3  Xrotation Yrotation Zrotation
			JOINT left_ankle
			{
				OFFSET	-11.7	-411.3	35.4
				CHANNELS 3  Xrotation Yrotation Zrotation
				JOINT left_toes
				{
					OFFSET	0	-60	-88.6
					CHANNELS 3  Xrotation Yrotation Zrotation
					JOINT left_foot_ee
					{
						OFFSET	-22.5	-16.5	-42.2
						CHANNELS 3  Xrotation Yrotation Zrotation
						End Site
						{
							OFFSET	1	0	0
						}
					}
				}
			}
		}
	}
	JOINT right_hip
	{
		OFFSET	82.8	-127.5	0.300001
		CHANNELS 3  Xrotation Yrotation Zrotation
		JOINT right_knee
		{
			OFFSET	28.2	-396.7	2.2
			CHANNELS 3  Xrotation Yrotation Zrotation
			JOINT right_ankle
			{
				OFFSET	11.7	-411.3	35.4
				CHANNELS 3  Xrotation Yrotation Zrotation
				JOINT right_toes
				{
					OFFSET	0	-60	-88.6
					CHANNELS 3  Xrotation Yrotation Zrotation
					JOINT right_foot_ee
					{
						OFFSET	22.5	-16.5	-42.2
						CHANNELS 3  Xrotation Yrotation Zrotation
						End Site
						{
							OFFSET	1	0	0
						}
					}
				}
			}
		}
	}
}
MOTION
Frames: 11
Frame Time: 0.02
2884.30171654 702.726 -1889.8921408 -6.63706178733 18.7019392977 1.43107089962 4.97366 0.354389 0.924215 4.97409 0.294863 0.94489 4.97857 0.174924 0.974248 4.97739 0.326586 0.934401 -15.4406 0.0198194 -0.751677 -15.4392 0.478972 -0.701934 -0.0 0.0 -0.0 4.17778 12.9727 8.45861 -11.1188 -25.2699 55.4803 1.07235 -27.9769 0.267144 -1.04133 -0.0378525 0.127594 -2.72267 10.511 -13.1613 -0.0 0.0 -0.0 6.00886 15.5402 -10.964 -32.0703 21.3286 -68.8164 0.599279 16.5345 -0.0870762 57.7664 1.57916 6.8981 0.44387 -11.8115 -7.70384 0.0 0.0 0.0 10.8887 4.50988 4.92925 -7.41796 0.233589 1.11368 10.8114 18.221 -1.55787 34.923 -0.0 -0.0 -0.0 0.0 -0.0 29.7041 12.9365 5.47193 -56.3597 1.81999 -8.11232 -23.0107 -24.2705 -3.5938 37.748 -0.0 -0.0 0.0 0.0 0.0 
2868.26686467 704.047 -1901.92973832 -7.01735317643 19.0053551139 1.50495866619 5.07364 0.225126 0.898269 5.07407 0.167513 0.910772 5.07634 0.0543725 0.92445 5.07521 0.199684 0.904264 -15.4507 -0.294952 -2.48946 -15.434 0.895719 -2.44665 -0.0 0.0 -0.0 4.52274 12.166 9.03086 -9.91216 -26.5169 54.4928 1.1008 -28.603 0.28063 -1.7762 -0.0659598 0.217218 -2.65096 8.50044 -13.7278 -0.0 0.0 -0.0 5.39368 15.2109 -9.66956 -32.9287 21.4183 -69.7083 0.594168 16.4011 -0.0856273 57.0023 1.51443 6.82461 0.574997 -12.7023 -8.88212 0.0 0.0 0.0 10.231 2.60354 6.00371 -8.07503 0.247287 1.21358 15.1736 17.0444 -2.14487 36.2582 -0.0 -0.0 -0.0 0.0 -0.0 31.3821 14.5676 3.27929 -56.3671 1.82074 -8.11319 -24.4384 -22.7664 -3.79054 37.2269 -0.0 -0.0 0.0 0.0 0.0 
2857.31570392 702.805 -1905.97293068 -6.41137626729 18.5022479003 0.801859533594 5.21238 0.262188 0.823268 5.21273 0.209271 0.838282 5.21546 0.106805 0.85738 5.21452 0.240868 0.829755 -15.3988 -0.545669 -2.87377 -15.376 0.643913 -2.89382 -0.0 0.0 -0.0 4.6991 12.0545 9.32981 -8.83155 -26.456 53.8318 1.12291 -29.0844 0.291295 -1.93837 -0.0723173 0.236949 -2.66236 7.28755 -14.4264 -0.0 0.0 -0.0 5.16232 15.15 -9.17976 -32.9569 21.603 -70.1711 0.558633 15.4686 -0.0758711 56.5168 1.47382 6.77747 0.501916 -13.2034 -8.60634 0.0 0.0 0.0 9.39104 2.32977 6.48209 -8.8628 0.262199 1.33354 18.6477 16.2846 -2.59384 36.8231 -0.0 -0.0 -0.0 0.0 -0.0 33.2957 13.3758 3.33256 -55.0705 1.69186 -7.96042 -24.6311 -21.209 -3.79583 35.6192 -0.0 -0.0 0.0 0.0 0.0 
2821.71110368 703.081 -1900.55107605 -6.87022663005 20.4667074765 0.566401129691 4.92984 0.173818 0.724061 4.93012 0.127394 0.733654 4.93151 0.0344281 0.743835 4.93077 0.151468 0.729064 -20.0776 -0.961653 -3.45672 -20.0439 -0.102197 -3.61285 -0.0 0.0 -0.0 4.92354 12.8599 9.71009 -6.80402 -26.0618 52.7096 1.42289 -35.1763 0.451062 -3.44381 -0.133997 0.419234 -2.64283 4.57804 -15.6707 -0.0 0.0 -0.0 5.07106 14.3663 -9.04292 -33.9474 21.6429 -68.6621 0.545617 15.1248 -0.0724372 56.8043 1.49783 6.80543 0.397613 -12.5515 -7.69367 0.0 0.0 0.0 8.91478 2.55358 7.93345 -8.85918 0.262134 1.33299 23.129 16.5465 -3.15597 36.4626 -0.0 -0.0 -0.0 0.0 -0.0 35.6026 11.3842 3.82124 -50.898 1.30127 -7.44993 -23.4282 -21.7811 -3.61862 33.7824 -0.0 -0.0 0.0 0.0 0.0 
2793.28976424 701.064 -1901.42384213 -7.72339833152 21.5726312192 1.25144960903 4.96495 0.116731 0.585492 4.96514 0.0792385 0.591733 4.96579 0.00479653 0.596995 4.96531 0.0990189 0.588746 -21.4763 -0.80906 0.197968 -21.4806 -1.65669 -0.17432 -0.0 0.0 -0.0 5.20074 13.3603 10.1722 -4.45397 -25.7146 51.5208 1.69505 -40.016 0.617253 -7.15773 -0.306495 0.86158 -2.78374 5.66625 -16.0808 -0.0 0.0 -0.0 5.0692 15.334 -8.96714 -34.9754 20.5585 -68.1428 0.56769 15.707 -0.0783047 58.0669 1.60488 6.92676 0.458258 -12.0292 -7.87967 0.0 0.0 0.0 7.61703 0.487771 9.32156 -7.00962 0.224499 1.05168 27.0422 20.3273 -3.67034 36.0077 -0.0 -0.0 -0.0 0.0 -0.0 40.4825 11.1031 1.73001 -37.471 0.313764 -5.64097 -24.3445 -23.4015 -3.78678 26.6758 -0.0 -0.0 0.0 0.0 0.0 
2791.79325508 701.064 -1898.93182872 -7.7433418793 21.9406173854 1.30525413161 4.96495 0.116731 0.585492 4.96514 0.0792385 0.591733 4.96579 0.00479653 0.596995 4.96531 0.0990189 0.588746 -21.4763 -0.80906 0.197968 -21.4806 -1.65669 -0.17432 -0.0 0.0 -0.0 5.20074 13.3603 10.1722 -4.45397 -25.7146 51.5208 1.69505 -40.016 0.617253 -7.15773 -0.306495 0.86158 -2.78374 5.66625 -16.0808 -0.0 0.0 -0.0 5.0692 15.334 -8.96714 -34.9754 20.5585 -68.1428 0.56769 15.707 -0.0783047 58.0669 1.60488 6.92676 0.458258 -12.0292 -7.87967 0.0 0.0 0.0 7.61703 0.487771 9.32156 -7.00962 0.224499 1.05168 27.0422 20.3273 -3.67034 36.0077 -0.0 -0.0 -0.0 0.0 -0.0 40.4825 11.1031 1.73001 -37.471 0.313764 -5.64097 -24.3445 -23.4015 -3.78678 26.6758 -0.0 -0.0 0.0 0.0 0.0 
2778.0625599 698.627 -1902.11971738 -8.35938042143 23.0270097431 1.89663278907 4.80995 0.147195 0.424819 4.81005 0.119864 0.433324 4.81088 0.0636657 0.445066 4.81063 0.133156 0.429426 -19.8228 -1.15521 -0.876679 -19.8249 -1.77869 -1.29243 -0.0 0.0 -0.0 5.29811 13.671 10.331 -3.83092 -27.3683 51.468 1.76352 -41.1366 0.661794 -7.88091 -0.343407 0.946383 -2.80041 7.21441 -15.3952 -0.0 0.0 -0.0 5.2692 15.4253 -9.38765 -35.2648 20.2702 -67.9587 0.536818 14.8919 -0.0701587 57.8067 1.5826 6.90195 0.240872 -12.8228 -6.80273 0.0 0.0 0.0 7.27857 0.0634678 9.33046 -5.80519 0.195114 0.86918 27.9823 20.3524 -3.78026 35.8536 -0.0 -0.0 -0.0 0.0 -0.0 41.7351 11.6277 0.882443 -34.0824 0.133823 -5.15249 -24.2948 -24.6924 -3.8026 24.4461 -0.0 -0.0 0.0 0.0 0.0 
2756.18560887 693.307 -1919.69440566 -9.69823042732 24.6551444635 2.33138766327 4.67306 0.0795345 0.358094 4.67313 0.056587 0.362429 4.67344 0.00905773 0.366708 4.67325 0.0668584 0.360676 -18.1835 -2.62053 -0.0476403 -18.2141 -5.01626 -1.05522 -0.0 0.0 -0.0 5.47546 11.1793 10.6661 -2.96751 -27.4963 51.1974 1.8787 -42.9386 0.738934 -9.34563 -0.421441 1.1167 -2.68558 7.64358 -14.3999 -0.0 0.0 -0.0 5.62098 15.8465 -10.1098 -35.2882 19.9541 -68.4264 0.472115 13.1635 -0.0544733 58.6762 1.6575 6.98447 0.138995 -13.9017 -6.58034 0.0 0.0 0.0 7.82419 -1.80584 9.81905 -6.59382 0.214788 0.988606 31.9249 21.7694 -4.25079 36.0247 -0.0 -0.0 -0.0 0.0 -0.0 40.3166 13.3766 0.484484 -16.9872 -0.31934 -2.57775 -24.5818 -24.9022 -3.85162 18.9655 -0.0 -0.0 0.0 0.0 0.0 
2758.04144286 693.307 -1922.7873763 -9.66596294764 24.2391252122 2.25341981923 4.67306 0.0795345 0.358094 4.67313 0.056587 0.362429 4.67344 0.00905773 0.366708 4.67325 0.0668584 0.360676 -18.1835 -2.62053 -0.0476403 -18.2141 -5.01626 -1.05522 -0.0 0.0 -0.0 5.47546 11.1793 10.6661 -2.96751 -27.4963 51.1974 1.8787 -42.9386 0.738934 -9.34563 -0.421441 1.1167 -2.68558 7.64358 -14.3999 -0.0 0.0 -0.0 5.62098 15.8465 -10.1098 -35.2882 19.9541 -68.4264 0.472115 13.1635 -0.0544733 58.6762 1.6575 6.98447 0.138995 -13.9017 -6.58034 0.0 0.0 0.0 7.82419 -1.80584 9.81905 -6.59382 0.214788 0.988606 31.9249 21.7694 -4.25079 36.0247 -0.0 -0.0 -0.0 0.0 -0.0 40.3166 13.3766 0.484484 -16.9872 -0.31934 -2.57775 -24.5818 -24.9022 -3.85162 18.9655 -0.0 -0.0 0.0 0.0 0.0 
2725.93015362 685.3 -1955.95341831 -11.6396003517 28.2104208194 4.10667113478 4.54138 0.0884278 0.396467 4.54146 0.0630206 0.40129 4.54184 0.00945939 0.406099 4.54162 0.0734758 0.399508 -15.1035 -3.45799 1.85557 -15.146 -7.71315 0.598954 -0.0 0.0 -0.0 5.50408 10.0608 10.7271 -2.08256 -26.6208 50.7778 2.05559 -45.5135 0.86234 -11.0392 -0.517071 1.31109 -2.66867 9.74203 -13.205 -0.0 0.0 -0.0 6.19651 15.2771 -11.385 -35.3201 19.8046 -70.2302 0.4836 13.4721 -0.0571189 60.1741 1.78945 7.12397 -0.00565856 -16.2361 -6.58982 0.0 0.0 0.0 7.22321 -3.08762 9.09617 -8.49144 0.255375 1.27697 34.7484 24.0058 -4.60791 35.6252 -0.0 -0.0 -0.0 0.0 -0.0 36.9224 14.7968 0.994847 6.20031 0.304512 0.901979 -23.1188 -24.7635 -3.61957 12.9494 -0.0 -0.0 0.0 0.0 0.0 
2715.9086325 681.629 -1968.71856357 -11.8680116847 30.2875544388 4.79465690524 4.48093 0.0146352 0.437567 4.48104 -0.0132377 0.437611 4.48086 -0.0713905 0.431952 4.4806 -0.00227649 0.437806 -14.5833 -3.73588 2.10178 -14.6287 -8.39963 0.776266 -0.0 0.0 -0.0 5.35944 9.89959 10.4736 -2.29905 -26.5707 50.9348 2.07833 -45.8284 0.878607 -11.062 -0.518402 1.3137 -2.59411 10.3036 -12.4243 -0.0 0.0 -0.0 6.12886 14.709 -11.2778 -35.3713 19.7902 -70.6515 0.490561 13.6589 -0.0587519 60.377 1.8076 7.14259 -0.0190917 -16.5118 -6.6145 0.0 0.0 0.0 6.72227 -3.37225 8.3352 -9.72446 0.276617 1.46497 35.2005 24.7141 -4.67508 35.5081 -0.0 -0.0 -0.0 0.0 -0.0 36.8845 15.4601 0.437432 8.59753 0.448192 1.24124 -22.3027 -22.4288 -3.45364 12.0075 -0.0 -0.0 0.0 0.0 0.0 
